<?xml version="1.0" encoding="UTF-8"?><!DOCTYPE svg PUBLIC "-//W3C//DTD SVG 1.1//EN" "http://www.w3.org/Graphics/SVG/1.1/DTD/svg11.dtd"><svg xmlns="http://www.w3.org/2000/svg" viewBox="0 0 512 512"><path d="M342 256q18 0 30.5 -12.5t12.5 -30.5q0 -14 -16 -28t-16 -26h-22q0 19 16 32t16 22t-6 15t-15 6t-15.5 -6t-6.5 -15h-21q0 18 12.5 30.5t30.5 12.5zM331 149h21v-21h-21v21zM341 107q35 0 60.5 25t25.5 60t-25.5 60t-60.5 25t-60 -25t-25 -60t25 -60t60 -25zM256 416 q-14 0 -23 -9t-9 -23h64q0 14 -9 23t-23 9zM427 287q42 -37 42 -95q0 -53 -37.5 -90.5t-90.5 -37.5h-298v43h203q-16 17 -25 42h-72v235h43q0 26 19 45t45 19t45 -19t19 -45h43v-66q7 -1 21 -5v71q17 0 30 -13t13 -30v-54zM128 149q-17 0 -30 13t-13 30v149q0 17 13 30 t30 13v-235z"></path></svg>